<svg version="1.2" xmlns="http://www.w3.org/2000/svg" viewBox="0 0 1200 600" width="50" height="50">
	<title>az-svg</title>
	<style>
		.s0 { fill: #ffffff } 
		.s1 { fill: #E4002B }
	</style>
	<path id="Layer" class="s0" d="m570 390c-49.8 0-90-40.2-90-90 0-49.8 40.2-90 90-90 49.8 0 90 40.2 90 90 0 49.8-40.2 90-90 90z"/>
	<path id="Layer" class="s1" d="m590 375c-41.5 0-75-33.5-75-75 0-41.5 33.5-75 75-75 41.5 0 75 33.5 75 75 0 41.5-33.5 75-75 75z"/>
	<path id="Layer" class="s0" d="m670 250l9.6 26.9 25.8-12.3-12.3 25.8 26.9 9.6-26.9 9.6 12.3 25.8-25.8-12.3-9.6 26.9-9.6-26.9-25.8 12.3 12.3-25.8-26.9-9.6 26.9-9.6-12.3-25.8 25.8 12.3z"/>
</svg>